custom-analysis
version=1
nRows=4
nColumns=98
inDegrees=no

This file contains tibia displacement and acting force.

Units are S.I. units (seconds, meters, Newtons, ...)
Angles are in degrees.

endheader
time	APT	SIT	knee_angle	aACL_R_force	pACL_R_force	aPCL_R_force	pPCL_R_force	aMCL_R_force	mMCL_R_force	pMCL_R_force	aLCL_R_force	mLCL_R_force	pLCL_R_force	aPCL_L_force	pPCL_L_force	aMCL_L_force	aLCL_L_force	aACL_R_length	pACL_R_length	aPCL_R_length	pPCL_R_length	aMCL_R_length	mMCL_R_length	pMCL_R_length	aLCL_R_length	mLCL_R_length	pLCL_R_length	aPCL_L_length	pPCL_L_length	aMCL_L_length	aLCL_L_length	aACL_R_strain	pACL_R_strain	aPCL_R_strain	pPCL_R_strain	aMCL_R_strain	mMCL_R_strain	pMCL_R_strain	aLCL_R_strain	mLCL_R_strain	pLCL_R_strain	aPCL_L_strain	pPCL_L_strain	aMCL_L_strain	aLCL_L_strain	femur_lat_meniscii_r.femur_lat_r.force.X	femur_lat_meniscii_r.femur_lat_r.force.Y	femur_lat_meniscii_r.femur_lat_r.force.Z	femur_lat_meniscii_r.femur_lat_r.torque.X	femur_lat_meniscii_r.femur_lat_r.torque.Y	femur_lat_meniscii_r.femur_lat_r.torque.Z	femur_lat_meniscii_r.meniscus_lat_r.force.X	femur_lat_meniscii_r.meniscus_lat_r.force.Y	femur_lat_meniscii_r.meniscus_lat_r.force.Z	femur_lat_meniscii_r.meniscus_lat_r.torque.X	femur_lat_meniscii_r.meniscus_lat_r.torque.Y	femur_lat_meniscii_r.meniscus_lat_r.torque.Z	femur_med_meniscii_r.femur_med_r.force.X	femur_med_meniscii_r.femur_med_r.force.Y	femur_med_meniscii_r.femur_med_r.force.Z	femur_med_meniscii_r.femur_med_r.torque.X	femur_med_meniscii_r.femur_med_r.torque.Y	femur_med_meniscii_r.femur_med_r.torque.Z	femur_med_meniscii_r.meniscus_med_r.force.X	femur_med_meniscii_r.meniscus_med_r.force.Y	femur_med_meniscii_r.meniscus_med_r.force.Z	femur_med_meniscii_r.meniscus_med_r.torque.X	femur_med_meniscii_r.meniscus_med_r.torque.Y	femur_med_meniscii_r.meniscus_med_r.torque.Z	femur_med_tibia_r.tibia_upper_r.force.X	femur_med_tibia_r.tibia_upper_r.force.Y	femur_med_tibia_r.tibia_upper_r.force.Z	femur_med_tibia_r.tibia_upper_r.torque.X	femur_med_tibia_r.tibia_upper_r.torque.Y	femur_med_tibia_r.tibia_upper_r.torque.Z	femur_med_tibia_r.femur_med_r.force.X	femur_med_tibia_r.femur_med_r.force.Y	femur_med_tibia_r.femur_med_r.force.Z	femur_med_tibia_r.femur_med_r.torque.X	femur_med_tibia_r.femur_med_r.torque.Y	femur_med_tibia_r.femur_med_r.torque.Z	femur_lat_tibia_r.tibia_upper_r.force.X	femur_lat_tibia_r.tibia_upper_r.force.Y	femur_lat_tibia_r.tibia_upper_r.force.Z	femur_lat_tibia_r.tibia_upper_r.torque.X	femur_lat_tibia_r.tibia_upper_r.torque.Y	femur_lat_tibia_r.tibia_upper_r.torque.Z	femur_lat_tibia_r.femur_lat_r.force.X	femur_lat_tibia_r.femur_lat_r.force.Y	femur_lat_tibia_r.femur_lat_r.force.Z	femur_lat_tibia_r.femur_lat_r.torque.X	femur_lat_tibia_r.femur_lat_r.torque.Y	femur_lat_tibia_r.femur_lat_r.torque.Z	femur_lat_meniscii_force_r	femur_med_meniscii_force_r	femur_lat_tibia_force_r	femur_med_tibia_force_r
      0.16566348	      0.01287600	      0.01754728	     57.56946359	     -4.86175200	      0.00000000	    593.13798855	    384.44519542	      0.00000000	      0.00000000	      0.00000000	      0.00000000	      0.00000000	      0.00000000	      0.00000000	      0.00000000	      0.00000001	      0.00000000	      0.03111906	      0.02384582	      0.03503240	      0.03248837	      0.05960665	      0.05922981	      0.05629436	      0.05243865	      0.04768122	      0.04279220	      0.01525851	      0.01651186	      0.06550154	      0.04489616	      0.00366251	     -0.04840150	      0.12661409	      0.08701119	     -0.00700269	     -0.00942728	     -0.04143914	     -0.06321413	     -0.15336638	     -0.18246103	      0.00000079	     -0.32847694	      0.00000060	     -0.00000086	     95.35572947	    162.33616533	     16.57657778	    -10.55183447	      2.29162071	     37.34290590	    -95.35572947	   -162.33616533	    -16.57657778	      4.39757595	     -2.78356317	      2.87672639	     22.67837797	     19.34552734	     10.93056664	     -3.97010613	     -0.51587859	      9.10310517	    -22.67837797	    -19.34552734	    -10.93056664	     -0.22332897	      0.25352366	      0.06162563	   -790.36043720	   -701.97151923	    224.05751938	    -16.12953656	     17.74244675	     -1.33864706	    790.36043720	    701.97151923	   -224.05751938	    103.78275638	    -14.30156927	    321.31467522	      0.00000000	      0.00000000	      0.00000000	      0.00000000	      0.00000000	      0.00000000	      0.00000000	      0.00000000	      0.00000000	      0.00000000	      0.00000000	      0.00000000	    188.99875303	     31.74957547	      0.00000000	   1080.57179609
      0.16571509	      0.01287913	      0.01755725	     57.59733736	     -4.86774891	      0.00000000	    593.68343179	    384.74095143	      0.00000000	      0.00000000	      0.00000000	      0.00000000	      0.00000000	      0.00000000	      0.00000000	      0.00000000	      0.00000001	      0.00000000	      0.03111840	      0.02384548	      0.03503550	      0.03249016	      0.05960926	      0.05923032	      0.05629351	      0.05243684	      0.04767821	      0.04278858	      0.01525851	      0.01651186	      0.06550154	      0.04489616	      0.00364137	     -0.04841513	      0.12671368	      0.08707109	     -0.00695916	     -0.00941878	     -0.04145366	     -0.06324645	     -0.15341978	     -0.18253017	      0.00000079	     -0.32847694	      0.00000060	     -0.00000086	     95.43857164	    162.13251315	     16.69706009	    -10.59749430	      2.29529000	     37.37813483	    -95.43857164	   -162.13251315	    -16.69706009	      4.39637987	     -2.79010553	      2.87153694	     22.69304656	     19.31459402	     10.91622023	     -3.96516991	     -0.51588245	      9.10877415	    -22.69304656	    -19.31459402	    -10.91622023	     -0.22283720	      0.25368066	      0.06133779	   -790.75013277	   -702.16202643	    223.91905797	    -16.12290447	     17.74483775	     -1.32049682	    790.75013277	    702.16202643	   -223.91905797	    103.72523492	    -14.30599311	    321.46377184	      0.00000000	      0.00000000	      0.00000000	      0.00000000	      0.00000000	      0.00000000	      0.00000000	      0.00000000	      0.00000000	      0.00000000	      0.00000000	      0.00000000	    188.87632089	     31.73628473	      0.00000000	   1080.95190844
      0.16597312	      0.01289468	      0.01760707	     57.73670761	     -4.85662240	      0.00000000	    596.39282166	    386.17922487	      0.00000000	      0.00000000	      0.00000000	      0.00000000	      0.00000000	      0.00000000	      0.00000000	      0.00000000	      0.00000001	      0.00000000	      0.03111513	      0.02384379	      0.03505097	      0.03249913	      0.05962233	      0.05923289	      0.05628930	      0.05242775	      0.04766315	      0.04277047	      0.01525851	      0.01651186	      0.06550154	      0.04489616	      0.00353569	     -0.04848258	      0.12721129	      0.08737094	     -0.00674140	     -0.00937575	     -0.04152526	     -0.06340889	     -0.15368731	     -0.18287610	      0.00000079	     -0.32847694	      0.00000060	     -0.00000086	     96.39050848	    162.73360942	     17.14330416	    -10.79958142	      2.32388081	     37.75966827	    -96.39050848	   -162.73360942	    -17.14330416	      4.42700915	     -2.83067347	      2.88172002	     23.41127471	     19.56204637	     10.79741002	     -3.90974107	     -0.53506152	      9.40172610	    -23.41127471	    -19.56204637	    -10.79741002	     -0.23230946	      0.27361307	      0.05286989	   -793.55768979	   -701.01295619	    223.75403146	    -16.07385223	     17.78458446	     -1.31872198	    793.55768979	    701.01295619	   -223.75403146	    103.62223079	    -14.34631283	    322.58650663	      0.00000000	      0.00000000	      0.00000000	      0.00000000	      0.00000000	      0.00000000	      0.00000000	      0.00000000	      0.00000000	      0.00000000	      0.00000000	      0.00000000	    189.91379791	     32.36271782	      0.00000000	   1082.22864422
      0.16653680	      0.01292828	      0.01771598	     58.04121220	     -4.72549074	      0.00000000	    602.19055039	    389.05257538	      0.00000000	      0.00000000	      0.00000000	      0.00000000	      0.00000000	      0.00000000	      0.00000000	      0.00000000	      0.00000001	      0.00000000	      0.03110809	      0.02384028	      0.03508465	      0.03251870	      0.05965094	      0.05923869	      0.05628046	      0.05240763	      0.04763006	      0.04273086	      0.01525851	      0.01651186	      0.06550154	      0.04489616	      0.00330872	     -0.04862250	      0.12829426	      0.08802577	     -0.00626477	     -0.00927873	     -0.04167586	     -0.06376834	     -0.15427475	     -0.18363292	      0.00000079	     -0.32847694	      0.00000060	     -0.00000086	     97.30389896	    162.53766980	     17.97613475	    -11.14468094	      2.34838892	     38.11999394	    -97.30389896	   -162.53766980	    -17.97613475	      4.44998527	     -2.87672737	      2.89521330	     23.13667723	     18.94292864	     10.52066040	     -3.81221063	     -0.52564181	      9.28853011	    -23.13667723	    -18.94292864	    -10.52066040	     -0.22456827	      0.26909108	      0.05094755	   -798.26507210	   -699.64910604	    225.57521206	    -16.04683698	     17.91914576	     -1.23807661	    798.26507210	    699.64910604	   -225.57521206	    104.32244772	    -14.43442445	    324.43590609	      0.00000000	      0.00000000	      0.00000000	      0.00000000	      0.00000000	      0.00000000	      0.00000000	      0.00000000	      0.00000000	      0.00000000	      0.00000000	      0.00000000	    190.28842391	     31.69896960	      0.00000000	   1085.18209220
